<svg width="20" height="20" viewBox="0 0 20 20" fill="none" xmlns="http://www.w3.org/2000/svg">
<path d="M2.92984 17.0698C1.97473 16.1474 1.21291 15.0439 0.688821 13.8239C0.164731 12.6038 -0.111131 11.2916 -0.122669 9.96385C-0.134207 8.63605 0.11881 7.31926 0.621618 6.09029C1.12443 4.86133 1.86696 3.74481 2.80589 2.80589C3.74481 1.86696 4.86133 1.12443 6.09029 0.621618C7.31926 0.11881 8.63605 -0.134207 9.96385 -0.122669C11.2916 -0.111131 12.6038 0.164731 13.8239 0.688821C15.0439 1.21291 16.1474 1.97473 17.0698 2.92984C18.8914 4.81586 19.8994 7.34188 19.8766 9.96385C19.8538 12.5858 18.8021 15.0939 16.948 16.948C15.0939 18.8021 12.5858 19.8538 9.96385 19.8766C7.34188 19.8994 4.81586 18.8914 2.92984 17.0698ZM8.99984 10.9998V14.9998H10.9998V8.99984H8.99984V10.9998ZM8.99984 4.99984V6.99984H10.9998V4.99984H8.99984Z" fill="#2EB494"/>
</svg>
